#!OML:ASF F:\VICON\USERDATA\INSTALL\rory3\rory3.ASF
:FULLY-SPECIFIED
:DEGREES
718
root 5.28514 16.9009 1.90749 7.19916 -15.087 -6.81213
lowerback 21.3555 -0.384453 3.81444
upperback 5.37977 0.340563 1.1932
thorax -6.04316 0.100916 -0.974319
lowerneck -14.7202 -0.515958 -1.96982
upperneck 37.8378 0.309105 -1.7336
head 15.8984 -0.472758 -0.36498
rclavicle -1.0138e-014 1.66979e-014
rhumerus -34.185 -7.92949 -17.4321
rradius 34.8783
rwrist 5.36649
rhand -19.005 -45.3141
rfingers 7.12502
rthumb 7.30029 -75.1682
lclavicle -1.0138e-014 1.66979e-014
lhumerus -35.5738 6.77809 13.2682
lradius 28.4462
lwrist 16.7572
lhand -25.5781 -29.7519
lfingers 7.12502
lthumb 0.953181 0.225731
rfemur -100.464 0.235069 27.1639
rtibia 95.4228
rfoot 48.245 0.473641
rtoes -2.56774
lfemur -28.9577 6.99421 -24.5225
ltibia 42.2245
lfoot -17.7992 9.54123
ltoes 13.0263
719
root 5.28451 16.9059 1.91382 7.14341 -15.1754 -6.77563
lowerback 21.2152 -0.344445 3.79779
upperback 5.4576 0.37613 1.16005
thorax -5.884 0.121481 -1.00955
lowerneck -14.6169 -0.523659 -1.98248
upperneck 37.6956 0.290984 -1.71676
head 15.8009 -0.477186 -0.356083
rclavicle 7.95139e-016 2.38542e-015
rhumerus -34.1382 -8.12011 -17.3844
rradius 34.6391
rwrist 5.35646
rhand -19.1068 -45.0145
rfingers 7.12502
rthumb 7.20208 -74.872
lclavicle 7.95139e-016 2.38542e-015
lhumerus -35.4757 6.804 13.3255
lradius 28.3177
lwrist 16.5727
lhand -25.3472 -33.6681
lfingers 7.12502
lthumb 1.17625 -3.69163
rfemur -100.384 0.272592 27.1166
rtibia 95.4436
rfoot 48.1585 0.20022
rtoes -2.58531
lfemur -28.8489 7.0447 -24.5538
ltibia 42.1738
lfoot -17.8742 9.55598
ltoes 12.9939
720
root 5.28115 16.9063 1.91464 7.13817 -15.1958 -6.78014
lowerback 21.1863 -0.32575 3.78805
upperback 5.45121 0.396663 1.15254
thorax -5.87504 0.131652 -1.0173
lowerneck -14.5598 -0.529396 -1.95728
upperneck 37.6825 0.281989 -1.74203
head 15.7804 -0.480432 -0.372534
rclavicle 3.00165e-014 1.55052e-014
rhumerus -34.1316 -8.26805 -17.3168
rradius 34.3457
rwrist 5.29938
rhand -19.5112 -44.7517
rfingers 7.12502
rthumb 6.81171 -74.6221
lclavicle 3.00165e-014 1.55052e-014
lhumerus -35.43 6.87404 13.2871
lradius 28.2609
lwrist 16.5019
lhand -25.0928 -34.5678
lfingers 7.12502
lthumb 1.42189 -4.59277
rfemur -100.386 0.31826 27.1077
rtibia 95.454
rfoot 48.0792 0.348865
rtoes -3.04367
lfemur -28.8227 7.07758 -24.5304
ltibia 42.1078
lfoot -17.8386 9.54011
ltoes 12.9164
721
root 5.27772 16.9094 1.91705 7.12486 -15.1795 -6.72399
lowerback 21.1669 -0.327561 3.71053
upperback 5.4617 0.374507 1.12067
thorax -5.85519 0.122099 -1.00183
lowerneck -14.715 -0.505899 -1.84688
upperneck 37.7788 0.299006 -1.77139
head 15.8666 -0.463631 -0.404095
rclavicle -3.75703e-014 2.66371e-014
rhumerus -34.1311 -8.34952 -17.3289
rradius 34.2589
rwrist 5.23485
rhand -19.8174 -44.4663
rfingers 7.12502
rthumb 6.51614 -74.3461
lclavicle -3.75703e-014 2.66371e-014
lhumerus -35.3981 6.97585 13.2005
lradius 28.2456
lwrist 16.5339
lhand -25.1214 -34.0583
lfingers 7.12502
lthumb 1.39431 -4.08314
rfemur -100.403 0.296141 27.0506
rtibia 95.4817
rfoot 47.963 0.682498
rtoes -3.45598
lfemur -28.7722 7.07941 -24.5727
ltibia 42.0339
lfoot -17.8245 9.5238
ltoes 12.8457
722
root 5.27606 16.9136 1.92032 7.09963 -15.1598 -6.64446
lowerback 21.1194 -0.347366 3.61623
upperback 5.51046 0.322104 1.08102
thorax -5.78052 0.0991331 -0.977444
lowerneck -14.9387 -0.47746 -1.84419
upperneck 37.9088 0.302473 -1.65208
head 15.9865 -0.448106 -0.355376
rclavicle -2.80286e-014 2.0276e-014
rhumerus -34.0665 -8.66291 -17.3176
rradius 34.1031
rwrist 5.48353
rhand -19.9815 -43.9932
rfingers 7.12502
rthumb 6.35771 -73.8778
lclavicle -2.80286e-014 2.0276e-014
lhumerus -35.4282 7.01703 13.162
lradius 28.2499
lwrist 16.6318
lhand -25.1445 -34.3969
lfingers 7.12502
lthumb 1.37196 -4.4216
rfemur -100.42 0.241881 26.9869
rtibia 95.5221
rfoot 47.9268 0.911597
rtoes -3.8371
lfemur -28.7055 7.07596 -24.6506
ltibia 41.9837
lfoot -17.8046 9.54058
ltoes 12.7278
723
root 5.2747 16.9173 1.91741 7.13956 -15.0795 -6.67602
lowerback 21.1349 -0.400162 3.61357
upperback 5.48558 0.256785 1.1055
thorax -5.8185 0.0668204 -0.932923
lowerneck -14.9747 -0.455059 -1.98198
upperneck 38.0077 0.313264 -1.47627
head 16.0454 -0.441201 -0.254222
rclavicle -4.41302e-014 1.15295e-014
rhumerus -34.0044 -8.74949 -17.3261
rradius 34.1695
rwrist 5.37702
rhand -19.9873 -44.5169
rfingers 7.12502
rthumb 6.35212 -74.4016
lclavicle -4.41302e-014 1.15295e-014
lhumerus -35.6014 6.95332 13.1678
lradius 28.3136
lwrist 16.8247
lhand -25.1468 -34.6429
lfingers 7.12502
lthumb 1.36978 -4.66755
rfemur -100.459 0.187564 27.0227
rtibia 95.5361
rfoot 47.9896 0.758313
rtoes -3.89767
lfemur -28.7631 7.02887 -24.6015
ltibia 41.9566
lfoot -17.6804 9.57715
ltoes 12.6573
724
root 5.27331 16.9171 1.9152 7.19552 -14.992 -6.71248
lowerback 21.1481 -0.450148 3.64896
upperback 5.45199 0.202944 1.1234
thorax -5.86383 0.0396167 -0.919987
lowerneck -14.9625 -0.442714 -1.99905
upperneck 38.0219 0.340013 -1.48549
head 16.0499 -0.434407 -0.250696
rclavicle 5.20816e-014 1.51076e-014
rhumerus -34 -8.61665 -17.375
rradius 34.5868
rwrist 4.69034
rhand -19.8442 -45.6623
rfingers 7.12502
rthumb 6.49018 -75.5429
lclavicle 5.20816e-014 1.51076e-014
lhumerus -35.7058 6.94933 13.163
lradius 28.4272
lwrist 16.8985
lhand -25.2211 -34.1665
lfingers 7.12502
lthumb 1.29799 -4.19066
rfemur -100.512 0.126516 27.0649
rtibia 95.526
rfoot 48.0743 0.576823
rtoes -3.98982
lfemur -28.8452 6.97042 -24.5542
ltibia 41.9483
lfoot -17.5756 9.58442
ltoes 12.6164
